<svg xmlns="http://www.w3.org/2000/svg" viewBox="0 0 17 17" width="17" height="17">
  <defs>
    <filter id="glow" x="-50%" y="-50%" width="200%" height="200%">
      <feGaussianBlur stdDeviation="0.5" result="b"/>
      <feMerge><feMergeNode in="b"/><feMergeNode in="SourceGraphic"/></feMerge>
    </filter>
  </defs>
  <rect width="17" height="17" rx="3" fill="#0B0B0F"/>
  <g fill="#39ff6a" filter="url(#glow)"><rect x="5" y="4.5" width="1" height="1"/><rect x="11" y="4.5" width="1" height="1"/><rect x="6" y="5.5" width="1" height="1"/><rect x="10" y="5.5" width="1" height="1"/><rect x="5" y="6.5" width="1" height="1"/><rect x="6" y="6.5" width="1" height="1"/><rect x="7" y="6.5" width="1" height="1"/><rect x="8" y="6.5" width="1" height="1"/><rect x="9" y="6.5" width="1" height="1"/><rect x="10" y="6.5" width="1" height="1"/><rect x="11" y="6.5" width="1" height="1"/><rect x="4" y="7.5" width="1" height="1"/><rect x="5" y="7.5" width="1" height="1"/><rect x="7" y="7.5" width="1" height="1"/><rect x="8" y="7.5" width="1" height="1"/><rect x="9" y="7.5" width="1" height="1"/><rect x="11" y="7.5" width="1" height="1"/><rect x="12" y="7.5" width="1" height="1"/><rect x="3" y="8.5" width="1" height="1"/><rect x="4" y="8.5" width="1" height="1"/><rect x="5" y="8.5" width="1" height="1"/><rect x="6" y="8.5" width="1" height="1"/><rect x="7" y="8.5" width="1" height="1"/><rect x="8" y="8.5" width="1" height="1"/><rect x="9" y="8.5" width="1" height="1"/><rect x="10" y="8.5" width="1" height="1"/><rect x="11" y="8.5" width="1" height="1"/><rect x="12" y="8.5" width="1" height="1"/><rect x="13" y="8.5" width="1" height="1"/><rect x="3" y="9.5" width="1" height="1"/><rect x="5" y="9.5" width="1" height="1"/><rect x="6" y="9.5" width="1" height="1"/><rect x="7" y="9.5" width="1" height="1"/><rect x="8" y="9.5" width="1" height="1"/><rect x="9" y="9.5" width="1" height="1"/><rect x="10" y="9.5" width="1" height="1"/><rect x="11" y="9.5" width="1" height="1"/><rect x="13" y="9.5" width="1" height="1"/><rect x="3" y="10.5" width="1" height="1"/><rect x="5" y="10.5" width="1" height="1"/><rect x="11" y="10.5" width="1" height="1"/><rect x="13" y="10.5" width="1" height="1"/><rect x="6" y="11.5" width="1" height="1"/><rect x="7" y="11.5" width="1" height="1"/><rect x="9" y="11.5" width="1" height="1"/><rect x="10" y="11.5" width="1" height="1"/></g>
</svg>
